# xmcd CD database file
#
# Track frame offsets:
#	150
#	17930
#	35665
#	53450
#
# Disc length: 946 seconds
#
# Revision: 0
# Processed by: cddbd v1.5.1PL0 Copyright (c) Steve Scherf et al.
# Submitted via: CDex 1.51
#
DISCID=2a03b004
DTITLE=藤井フミヤ - ガール・フレンド
DYEAR=1996
DGENRE=ポップ（日本）
TTITLE0=GIRL FRIEND
TTITLE1=Hello my tears
TTITLE2=GIRL FRIEND(Instrumental)
TTITLE3=Hello my tears(Instrumental)
EXTD=YEAR: 1996
EXTT0=
EXTT1=
EXTT2=
EXTT3=
PLAYORDER=
